<svg width="24" height="25" viewBox="0 0 24 25" fill="none" xmlns="http://www.w3.org/2000/svg">
<path d="M4.71875 5.1792H22.2447L20.415 12.9792L4.71875 14.3792V5.1792Z" fill="url(#paint0_linear_111_11381)"/>
<path d="M6 17.7792C5.17126 17.7792 4.5 17.0632 4.5 16.1792L21.1089 14.6387C21.4923 14.6031 21.8117 14.3132 21.9035 13.9145C22.4106 11.7133 24 4.76751 24 4.1792C24 3.7376 23.664 3.3792 23.25 3.3792H4.5V1.6192C4.5 0.979199 4.5 1.4208 4.5 0.979199C4.5 0.537599 4.164 0.179199 3.75 0.179199L0.75 0.1792C0.336 0.1792 0 0.5376 0 0.9792C0 1.4208 0.336 1.7792 0.75 1.7792H3V16.1792C3 17.9464 4.34326 19.3792 6 19.3792L19.56 19.3792C19.56 19.3792 18.9911 18.6232 19.4299 19.1392L19.56 19.3792L18 17.9392L6 17.7792ZM4.5 4.9792H22.5L20.5823 13.1616L4.5 14.5792V4.9792Z" fill="black"/>
<path d="M20.925 21.0592C20.925 22.7823 19.6154 24.1792 18 24.1792C16.3846 24.1792 15.075 22.7823 15.075 21.0592C15.075 19.3361 16.3846 17.9392 18 17.9392C19.6154 17.9392 20.925 19.3361 20.925 21.0592ZM16.5701 21.0592C16.5701 21.9015 17.2103 22.5844 18 22.5844C18.7897 22.5844 19.4299 21.9015 19.4299 21.0592C19.4299 20.2169 18.7897 19.534 18 19.534C17.2103 19.534 16.5701 20.2169 16.5701 21.0592Z" fill="black"/>
<path d="M10.35 21.0592C10.35 22.7823 9.04044 24.1792 7.425 24.1792C5.80957 24.1792 4.5 22.7823 4.5 21.0592C4.5 19.3361 5.80957 17.9392 7.425 17.9392C9.04044 17.9392 10.35 19.3361 10.35 21.0592ZM5.99515 21.0592C5.99515 21.9015 6.63532 22.5844 7.425 22.5844C8.21469 22.5844 8.85486 21.9015 8.85486 21.0592C8.85486 20.2169 8.21469 19.534 7.425 19.534C6.63532 19.534 5.99515 20.2169 5.99515 21.0592Z" fill="black"/>
<defs>
<linearGradient id="paint0_linear_111_11381" x1="-5.03005" y1="-1.20969" x2="24.4904" y2="5.47194" gradientUnits="userSpaceOnUse">
<stop stop-color="#F64D4D"/>
<stop offset="1" stop-color="#4D5EF6"/>
</linearGradient>
</defs>
</svg>
