<svg width="25" height="25" viewBox="0 0 25 25" fill="none" xmlns="http://www.w3.org/2000/svg">
<g clip-path="url(#clip0_111_11370)">
<path d="M6.61248 2.30419C8.86248 2.55417 10.7373 4.17917 12.4874 6.3042C14.2373 4.17918 16.2497 2.30419 18.7497 2.30419C21.9997 2.30419 23.4819 5.25301 23.1123 7.76019C22.7374 10.3042 21.7495 10.6792 17.3625 16.0542L13.1125 21.0542C12.2836 21.9372 12.6913 21.9372 11.8625 21.0542L10.3625 19.1792L9.11236 17.6792L7.73748 16.0542C3.12451 10.6792 2.05512 9.3042 1.87447 7.76019C1.49939 4.55422 3.62456 1.97223 6.61248 2.30419Z" fill="url(#paint0_linear_111_11370)"/>
<path d="M18.75 0.41748C16.1461 0.41748 14.1758 1.94563 12.5 3.54248C10.9031 1.84795 8.85392 0.41748 6.25 0.41748C2.5828 0.41748 0 3.57059 0 7.0089C0 8.85343 0.755474 10.1823 1.5828 11.43L11.2961 23.0753C12.3867 24.2292 12.5922 24.2292 13.6828 23.0753L23.4179 11.43C24.3906 10.1823 25 8.85343 25 7.0089C25 3.57063 22.4172 0.41748 18.75 0.41748ZM21.875 11.1066L12.5 22.2925L3.125 11.0605C2.00392 9.50187 1.5625 8.45032 1.5625 7.0089C1.5625 4.32295 3.48047 1.90498 6.25 1.88231C8.52815 1.86356 11.1102 4.19011 12.5 5.94403C13.8531 4.25106 16.4719 1.88231 18.75 1.88231C21.4461 1.88231 23.4375 4.32295 23.4375 7.0089C23.4375 8.45032 23.0883 9.57998 21.875 11.1066Z" fill="black"/>
</g>
<defs>
<linearGradient id="paint0_linear_111_11370" x1="-10.0367" y1="-11.2253" x2="27.1111" y2="-6.38141" gradientUnits="userSpaceOnUse">
<stop stop-color="#F64D4D"/>
<stop offset="1" stop-color="#4D5EF6"/>
</linearGradient>
<clipPath id="clip0_111_11370">
<rect width="25" height="24" fill="white" transform="translate(0 0.179199)"/>
</clipPath>
</defs>
</svg>
